# Blender 3.6.2
# www.blender.org
o body
v 0.500000 0.200000 -0.500000
v 0.500000 -0.400000 -0.500000
v 0.500000 0.200000 0.500000
v 0.500000 -0.400000 0.500000
v -0.500000 0.200000 -0.500000
v -0.500000 -0.400000 -0.500000
v -0.500000 0.200000 0.500000
v -0.500000 -0.400000 0.500000
v 0.340949 -0.400000 0.500000
v -0.349999 -0.400000 0.500000
v -0.350027 -0.400000 -0.500000
v 0.325497 -0.400000 -0.500000
v 0.340949 -0.300000 0.500000
v -0.349999 -0.300000 0.500000
v -0.350027 -0.300000 -0.500000
v 0.325497 -0.300000 -0.500000
vn 1.0000 -0.0000 -0.0000
vn -1.0000 -0.0000 -0.0000
vn -0.0000 -1.0000 -0.0000
vn -0.0000 1.0000 -0.0000
vn -0.9999 -0.0000 0.0155
vn -0.0000 -0.0000 1.0000
vn -0.0000 -0.0000 -1.0000
vt 0.000000 1.000000
vt 0.300000 0.500000
vt 0.300000 1.000000
vt 0.062500 0.500000
vt 0.000000 0.000000
vt 0.000000 0.500000
vt 0.500000 0.500000
vt 0.437500 0.000000
vt 0.437500 0.500000
vt 0.301563 0.500000
vt 0.250000 1.000000
vt 0.250000 0.500000
vt 0.250000 0.925000
vt 0.250000 0.587500
vt 0.062500 0.000000
vt 0.500000 0.000000
vt 0.301563 1.000000
vt 0.300000 0.575000
vt 0.250000 0.575000
vt 0.300000 0.925000
vt 0.300000 0.587500
s 0
f 1/1/1 4/2/1 2/3/1
f 7/1/2 6/2/2 8/3/2
f 11/4/3 8/5/3 6/6/3
f 2/7/3 9/8/3 12/9/3
f 16/4/3 14/8/3 15/9/3
f 7/5/4 1/7/4 5/6/4
f 12/10/5 13/11/5 16/12/5
f 15/11/1 10/2/1 11/3/1
f 13/13/6 3/1/6 7/6/6
f 5/1/7 16/14/7 15/13/7
f 1/1/1 3/6/1 4/2/1
f 7/1/2 5/6/2 6/2/2
f 11/4/3 10/15/3 8/5/3
f 2/7/3 4/16/3 9/8/3
f 16/4/3 13/15/3 14/8/3
f 7/5/4 3/16/4 1/7/4
f 12/10/5 9/17/5 13/11/5
f 15/11/1 14/12/1 10/2/1
f 7/6/6 8/2/6 10/18/6
f 7/6/6 10/18/6 14/19/6
f 9/20/6 4/3/6 3/1/6
f 7/6/6 14/19/6 13/13/6
f 13/13/6 9/20/6 3/1/6
f 15/13/7 11/20/7 6/3/7
f 5/1/7 1/6/7 2/2/7
f 2/2/7 12/21/7 16/14/7
f 15/13/7 6/3/7 5/1/7
f 5/1/7 2/2/7 16/14/7
o rod
v 0.150000 -0.300000 0.250000
v 0.150000 -0.300000 -0.250000
v -0.150000 -0.300000 0.250000
v -0.150000 -0.300000 -0.250000
v -0.150000 0.800000 -0.250000
v -0.150000 0.800000 0.250000
v 0.150000 0.800000 -0.250000
v 0.150000 0.800000 0.250000
v 0.340949 -0.300000 0.500000
v -0.349999 -0.300000 0.500000
v -0.350027 -0.300000 -0.500000
v 0.325497 -0.300000 -0.500000
v -0.349999 -0.500000 0.500000
v -0.350027 -0.500000 -0.500000
v 0.340949 -0.500000 0.500000
v 0.325497 -0.500000 -0.500000
vn -0.0000 -0.0000 1.0000
vn -0.0000 -0.0000 -1.0000
vn 1.0000 -0.0000 -0.0000
vn -0.0000 1.0000 -0.0000
vn -1.0000 -0.0000 -0.0000
vn -0.0000 -1.0000 -0.0000
vn 0.9999 -0.0000 -0.0155
vt 1.000000 0.400000
vt 0.500000 0.250000
vt 1.000000 0.250000
vt 0.500000 -0.000000
vt 1.000000 -0.000000
vt 0.450000 0.750000
vt 0.300000 1.000000
vt 0.300000 0.750000
vt 0.525000 0.500000
vt 0.900000 1.000000
vt 0.525000 1.000000
vt 0.900000 0.500000
vt 0.900000 0.400000
vt 1.000000 1.000000
vt 0.500000 0.400000
vt 0.450000 1.000000
vt 0.525000 0.400000
vt 1.000000 0.500000
s 0
f 22/22/8 17/23/8 24/24/8
f 23/22/9 20/23/9 21/24/9
f 24/24/10 18/25/10 23/26/10
f 24/27/11 21/28/11 22/29/11
f 21/24/12 19/25/12 22/26/12
f 26/30/11 28/31/11 27/32/11
f 32/32/13 29/33/13 30/31/13
f 26/30/8 31/34/8 25/33/8
f 27/33/12 29/35/12 26/31/12
f 28/30/9 30/34/9 27/33/9
f 25/33/14 32/35/14 28/31/14
f 22/22/8 19/36/8 17/23/8
f 23/22/9 18/36/9 20/23/9
f 24/24/10 17/23/10 18/25/10
f 24/27/11 23/37/11 21/28/11
f 21/24/12 20/23/12 19/25/12
f 26/30/11 25/33/11 28/31/11
f 32/32/13 31/30/13 29/33/13
f 26/30/8 29/38/8 31/34/8
f 27/33/12 30/39/12 29/35/12
f 28/30/9 32/38/9 30/34/9
f 25/33/14 31/39/14 32/35/14
